<svg width="224" height="219" viewBox="0 0 224 219" fill="none" xmlns="http://www.w3.org/2000/svg">
<path d="M187.755 5.85439L112.038 31.733L36.2455 5.85439L0 58.5332L112.038 96.852L224 58.5332L187.755 5.85439Z" fill="#0400D7"/>
<path opacity="0.45" d="M13.2081 56.383L106.126 91.9374L74.1804 60.2994C74.1804 60.2994 21.732 47.6288 13.2081 56.383Z" fill="#050377"/>
<path opacity="0.45" d="M210.869 56.383L117.951 91.9374L149.896 60.2994C149.82 60.2994 202.268 47.6288 210.869 56.383Z" fill="#050377"/>
<path d="M112.038 96.852L0 58.5332V63.5246L112.038 101.843L224 63.5246V58.5332L112.038 96.852Z" fill="#407DFF"/>
<path d="M52.3716 119.889L65.3494 85.8708L107.124 100.154L52.3716 119.889Z" fill="#050377"/>
<path opacity="0.45" d="M55.9808 110.06L107.124 100.154L65.3494 85.8708L55.9808 110.06Z" fill="#050377"/>
<path d="M112.038 98.3878L52.3716 119.889L56.8255 124.574L112.038 104.915L167.175 124.574L171.705 119.889L112.038 98.3878Z" fill="#407DFF"/>
<path d="M171.705 119.889L158.651 85.8708L116.876 100.154L171.705 119.889Z" fill="#050377"/>
<path opacity="0.45" d="M168.019 110.06L116.876 100.154L158.651 85.8708L168.019 110.06Z" fill="#050377"/>
<path d="M112.038 104.915C114.286 104.915 116.108 103.093 116.108 100.845C116.108 98.5974 114.286 96.7752 112.038 96.7752C109.791 96.7752 107.968 98.5974 107.968 100.845C107.968 103.093 109.791 104.915 112.038 104.915Z" fill="white" fill-opacity="0.5"/>
<path d="M184.529 5.85439L112.038 41.9463L39.5474 5.85439C36.2454 10.2315 9.67566 54.54 9.67566 54.54C9.98282 54.54 10.2132 54.6168 10.5204 54.6168C77.1752 61.2977 95.6818 82.2617 101.825 87.3299C107.968 92.4749 112.115 91.9374 112.115 91.9374C112.115 91.9374 116.262 92.4749 122.405 87.3299C128.548 82.2617 147.055 61.2977 213.71 54.6168C214.017 54.6168 214.248 54.54 214.555 54.54C214.401 54.54 187.755 10.3083 184.529 5.85439Z" fill="#F9B091"/>
<path d="M214.401 54.54C214.094 54.54 213.864 54.6168 213.556 54.6168C146.902 61.2977 128.395 82.2617 122.252 87.3299C116.108 92.4749 111.962 91.9374 111.962 91.9374C111.962 91.9374 107.815 92.4749 101.672 87.3299C95.5283 82.2617 77.0216 61.2977 10.3668 54.6168C10.0596 54.6168 9.82927 54.54 9.52211 54.54C8.98457 55.3847 9.52211 55.9991 9.52211 55.9991C76.868 62.5263 94.7604 83.5671 100.904 88.7121C107.047 93.7804 111.885 93.3964 111.885 93.3964C111.885 93.3964 116.723 93.7804 122.866 88.7121C129.009 83.6439 146.902 62.6031 214.248 55.9991C214.401 55.9991 214.939 55.3847 214.401 54.54Z" fill="#134DFA"/>
<path d="M181.765 1.63087C144.675 -7.27691 111.962 23.2092 111.962 23.2092C111.962 23.2092 79.2486 -7.27691 42.1584 1.63087C42.1584 1.63087 31.638 17.757 17.1245 45.1715C17.1245 45.1715 90.1529 53.3882 111.962 84.0279C133.77 53.3882 206.799 45.1715 206.799 45.1715C192.285 17.757 181.765 1.63087 181.765 1.63087Z" fill="#F5EFFB"/>
<path d="M206.799 45.1715C206.799 45.1715 133.77 53.3882 111.962 84.0279C90.2297 53.3882 17.2012 45.1715 17.2012 45.1715C17.2012 45.1715 17.2012 47.6288 13.1313 52.4667C13.1313 52.4667 79.4021 57.2277 103.515 84.719C109.197 91.1694 111.962 90.4015 111.962 90.4015C111.962 90.4015 114.803 91.1694 120.409 84.719C144.444 57.2277 210.792 52.4667 210.792 52.4667C206.799 47.552 206.799 45.1715 206.799 45.1715Z" fill="#DFCBF4"/>
<path d="M177.618 4.8561C177.618 4.8561 149.896 -2.20869 111.962 27.2023C74.1035 -2.1319 46.3051 4.8561 46.3051 4.8561L27.5681 41.2551C84.5471 45.1715 111.962 73.9682 111.962 73.9682C111.962 73.9682 139.376 45.1715 196.355 41.2551L177.618 4.8561ZM112.038 70.5126C112.038 70.5126 86.3901 44.25 32.0219 39.105L47.7641 6.39193C47.7641 6.39193 75.025 1.09334 112.038 28.8918C149.052 1.09334 176.313 6.39193 176.313 6.39193L192.055 39.105C137.687 44.25 112.038 70.5126 112.038 70.5126Z" fill="#134DFA"/>
<path opacity="0.2" d="M119.026 54.6121C129.265 47.0609 161.262 30.3508 182.763 32.6545" stroke="#2B48A1" stroke-width="3" stroke-linecap="round"/>
<path opacity="0.2" d="M119.026 33.4224C128.113 26.3075 151.739 12.3669 173.548 13.5246" stroke="#2B48A1" stroke-width="3" stroke-linecap="round"/>
<path opacity="0.2" d="M119.026 44.1732C128.881 36.5109 154.504 21.498 178.156 22.7448" stroke="#2B48A1" stroke-width="3" stroke-linecap="round"/>
<path opacity="0.2" d="M105.972 54.6121C95.7331 47.0609 63.7367 30.3508 42.2352 32.6545" stroke="#2B48A1" stroke-width="3" stroke-linecap="round"/>
<path opacity="0.2" d="M105.972 33.4224C96.885 26.3075 73.2589 12.3669 51.4501 13.5246" stroke="#2B48A1" stroke-width="3" stroke-linecap="round"/>
<path opacity="0.2" d="M105.972 44.1732C96.117 36.5109 70.4944 21.498 46.8427 22.7448" stroke="#2B48A1" stroke-width="3" stroke-linecap="round"/>
<path d="M112.038 23.2092C112.038 23.2092 112.806 20.5215 114.265 21.2894C114.265 21.2894 113.344 64.8301 114.88 81.8009C115.264 86.0244 118.95 91.7838 120.409 93.9339H118.489L117.951 95.7001C117.951 95.7001 112.269 86.1012 112.038 82.3385C110.887 65.4444 111.501 27.2791 112.038 23.2092Z" fill="#FFD08A"/>
<path d="M13.5192 204C11.9352 204 10.7252 203.758 9.88923 203.274C9.05323 202.746 8.45923 201.888 8.10723 200.7C7.75523 199.468 7.57923 197.708 7.57923 195.42V160.44H16.1592V195.42C16.1592 197.664 16.4672 199.336 17.0832 200.436C17.6992 201.492 18.9312 202.02 20.7792 202.02H21.4392V204H13.5192ZM45.3921 202.68C44.8641 203.076 44.2481 203.406 43.5441 203.67C41.9601 204.33 40.2661 204.66 38.4621 204.66C33.8861 204.66 30.3661 203.164 27.9021 200.172C25.4821 197.136 24.2721 193.242 24.2721 188.49C24.2721 183.738 25.4601 179.866 27.8361 176.874C30.2561 173.838 33.6881 172.32 38.1321 172.32C40.4201 172.32 42.3341 172.936 43.8741 174.168C44.7101 174.74 45.3261 175.334 45.7221 175.95H46.0521L48.3621 172.98H53.9721V216.54H45.3921V202.68ZM39.7821 201.69C41.2341 201.69 42.5761 201.36 43.8081 200.7C44.4241 200.436 44.9521 200.106 45.3921 199.71V179.58C44.8201 178.612 44.3141 177.908 43.8741 177.468C42.5101 176.016 41.0361 175.29 39.4521 175.29C37.2521 175.29 35.6461 176.478 34.6341 178.854C33.6661 181.186 33.1821 184.398 33.1821 188.49C33.1821 197.29 35.3821 201.69 39.7821 201.69ZM83.0698 173.64C83.8618 174.212 84.4338 174.85 84.7858 175.554C85.1378 176.214 85.3138 176.566 85.3138 176.61L81.9478 179.184C81.6398 178.788 81.2438 178.37 80.7598 177.93C79.7918 177.05 78.6698 176.61 77.3938 176.61C74.8418 176.61 72.8838 177.292 71.5198 178.656L71.6518 179.646C71.7398 180.438 71.7838 181.164 71.7838 181.824V204H63.2038V181.56C63.2038 179.316 62.8958 177.666 62.2798 176.61C61.7078 175.51 60.4978 174.96 58.6498 174.96H57.9898V172.98H64.5238C66.0198 172.98 67.1858 173.178 68.0218 173.574C68.9018 173.926 69.5838 174.542 70.0678 175.422C72.4438 173.354 75.2158 172.32 78.3838 172.32C80.2758 172.32 81.8378 172.76 83.0698 173.64ZM98.6438 204.66C95.0798 204.66 92.3078 203.868 90.3278 202.284C88.3918 200.656 87.4238 198.478 87.4238 195.75C87.4238 193.55 87.9298 191.724 88.9418 190.272C89.9978 188.82 91.8238 187.72 94.4198 186.972C97.0158 186.224 100.624 185.85 105.244 185.85H106.234C106.234 182.022 105.706 179.316 104.65 177.732C103.594 176.104 102.032 175.29 99.9638 175.29C98.2478 175.29 96.8398 175.708 95.7398 176.544C94.6398 177.38 93.8478 178.942 93.3638 181.23H89.7338C89.7338 179.734 89.8218 178.458 89.9978 177.402C90.2178 176.346 90.6798 175.422 91.3838 174.63C92.7478 173.09 96.0478 172.32 101.284 172.32C105.684 172.32 109.028 173.486 111.316 175.818C113.648 178.106 114.814 181.56 114.814 186.18V204H109.204L106.894 201.03H106.564C106.168 201.646 105.552 202.262 104.716 202.878C103.22 204.066 101.196 204.66 98.6438 204.66ZM100.624 201.36C101.548 201.36 102.34 201.184 103 200.832C103.66 200.436 104.298 199.908 104.914 199.248C105.486 198.632 105.926 197.906 106.234 197.07V188.82H105.244C102.12 188.82 99.8538 189.392 98.4458 190.536C97.0378 191.636 96.3338 193.374 96.3338 195.75C96.3338 197.554 96.7078 198.94 97.4558 199.908C98.2038 200.876 99.2598 201.36 100.624 201.36ZM131.386 204.66C127.822 204.66 125.05 203.868 123.07 202.284C121.134 200.656 120.166 198.478 120.166 195.75C120.166 193.55 120.672 191.724 121.684 190.272C122.74 188.82 124.566 187.72 127.162 186.972C129.758 186.224 133.366 185.85 137.986 185.85H138.976C138.976 182.022 138.448 179.316 137.392 177.732C136.336 176.104 134.774 175.29 132.706 175.29C130.99 175.29 129.582 175.708 128.482 176.544C127.382 177.38 126.59 178.942 126.106 181.23H122.476C122.476 179.734 122.564 178.458 122.74 177.402C122.96 176.346 123.422 175.422 124.126 174.63C125.49 173.09 128.79 172.32 134.026 172.32C138.426 172.32 141.77 173.486 144.058 175.818C146.39 178.106 147.556 181.56 147.556 186.18V204H141.946L139.636 201.03H139.306C138.91 201.646 138.294 202.262 137.458 202.878C135.962 204.066 133.938 204.66 131.386 204.66ZM133.366 201.36C134.29 201.36 135.082 201.184 135.742 200.832C136.402 200.436 137.04 199.908 137.656 199.248C138.228 198.632 138.668 197.906 138.976 197.07V188.82H137.986C134.862 188.82 132.596 189.392 131.188 190.536C129.78 191.636 129.076 193.374 129.076 195.75C129.076 197.554 129.45 198.94 130.198 199.908C130.946 200.876 132.002 201.36 133.366 201.36ZM179.704 204.66C177.768 204.66 175.986 204.264 174.358 203.472C172.774 202.636 171.278 201.272 169.87 199.38L163.534 191.064V204H154.954V169.02C154.954 166.776 154.646 165.126 154.03 164.07C153.414 162.97 152.182 162.42 150.334 162.42H149.674V160.44H157.594C159.178 160.44 160.388 160.704 161.224 161.232C162.06 161.76 162.654 162.64 163.006 163.872C163.358 165.06 163.534 166.776 163.534 169.02V187.83L171.52 178.062C173.016 176.258 174.424 174.96 175.744 174.168C177.064 173.376 178.824 172.98 181.024 172.98H182.344V174.696C181.024 174.696 179.836 174.96 178.78 175.488C177.724 176.016 176.712 176.852 175.744 177.996L169.342 185.784L178.12 197.4C180.232 200.26 182.278 201.932 184.258 202.416V204C183.906 204.176 183.246 204.33 182.278 204.462C181.354 204.594 180.496 204.66 179.704 204.66ZM201.146 204.66C196.966 204.66 193.886 203.692 191.906 201.756C189.926 199.82 188.936 196.74 188.936 192.516V181.56C188.936 179.316 188.628 177.666 188.012 176.61C187.396 175.51 186.164 174.96 184.316 174.96H183.656V172.98H191.576C193.16 172.98 194.37 173.244 195.206 173.772C196.042 174.3 196.636 175.18 196.988 176.412C197.34 177.6 197.516 179.316 197.516 181.56V192.582C197.516 195.882 197.978 198.236 198.902 199.644C199.826 201.008 201.234 201.69 203.126 201.69C204.754 201.69 206.228 200.986 207.548 199.578C208.032 199.094 208.538 198.368 209.066 197.4V172.98H217.646V204H212.036L209.726 201.03H209.396C208.78 201.69 208.054 202.306 207.218 202.878C205.546 204.066 203.522 204.66 201.146 204.66Z" fill="#134DFA"/>
</svg>
